<?xml version="1.0" encoding="UTF-8" standalone="no"?>
<svg width="100%" height="100%" viewBox="0 0 64 64" version="1.1"
     xmlns="http://www.w3.org/2000/svg"
     xmlns:xlink="http://www.w3.org/1999/xlink"
     xml:space="preserve"
     style="fill-rule:evenodd;clip-rule:evenodd;stroke-linejoin:round;stroke-miterlimit:2;">
  <style>
    .icon { fill: #000; }
    @media (prefers-color-scheme: dark) {
      .icon { fill: #fff; }
    }
  </style>
  <path class="icon" d="M44.932,61.531c4.827,-3.221 4.345,-13.278 2.808,-17.075c-0.667,-1.649 -2.197,-7.347 -2.197,-7.954c0.404,0.404 4.739,2.181 4.941,2.181c1.011,0.404 1.82,1.011 2.831,-0.404l0,-0.202c-0.607,-1.011 -3.099,-3.618 -4.11,-4.629c-1.386,-1.386 -3.487,-1.345 -3.487,-1.345c-2.426,-7.684 -5.863,-9.169 -12.94,-9.574c-0.404,-1.415 -1.415,-2.629 -2.831,-3.033c-0.202,-0.202 -0.404,-0.202 -0.607,-0.202l0.202,0.202l-0.202,0c0.809,0.809 1.213,2.022 1.415,3.235c-6.673,0.404 -10.06,2.038 -12.284,9.519c-0.202,0 -3.236,0.995 -3.438,1.197c-1.213,1.011 -2.224,2.831 -2.831,3.842l0,0.202c1.011,1.415 2.022,0.809 2.831,0.404c0.202,-0.202 2.132,-0.798 2.334,-1c-0.202,0.607 -0.85,5.006 -1.285,6.645c-1.533,5.765 -2.169,13.925 4.523,17.909l-10.084,0c0,0 -3.912,-9.525 -3.95,-20.905c-0.061,-18.03 5.025,-20.847 5.025,-20.847c0,0 3.235,-2.022 12.334,-2.831l-4.823,-8.126c-0.202,-0.404 0.076,-1.676 0.624,-1.985c1.546,-0.87 2.787,0.297 2.989,0.904l5.227,8.935c1.82,-0.202 1.846,0.07 4.071,0.07c3.033,0 3.959,-0.115 6.183,0.087l8.553,-13.621c0.202,-0.404 1.265,-1.6 2.506,-0.932c0.985,0.531 1.218,1.856 0.814,2.26l-6.743,12.97c7.684,0.809 9.513,2.674 9.513,2.674c0,0 4.42,4.745 4.581,20.952c0.103,10.337 -3.267,20.396 -3.267,20.396c0,0 -5.584,0.328 -9.228,0.08Z"
        style="fill-rule:nonzero;"/>
  <path d="M44.821,49.472l1.885,0" style="fill:none;fill-rule:nonzero;"/>
</svg>