<?xml version="1.0" encoding="utf-8"?>
<!-- Generator: Adobe Illustrator 25.0.0, SVG Export Plug-In . SVG Version: 6.00 Build 0)  -->
<svg version="1.1" id="图层_1" xmlns="http://www.w3.org/2000/svg" xmlns:xlink="http://www.w3.org/1999/xlink" x="0px" y="0px"
	 viewBox="0 0 100 100" style="enable-background:new 0 0 100 100;" xml:space="preserve">
<style type="text/css">
	.st0{fill:#FFFFFF;}
</style>
<path class="st0" d="M50,7.1C24.5,7.1,3.8,27.8,3.8,53.2c0,11.9,4.5,22.7,11.9,30.9c4-2.7,8.1-5.3,12.1-8c0.9,0,1.9,0,2.8,0
	c0.8,8.3,4.8,12.7,15.1,13.6c0.6,1.8,2.2,3.1,4.2,3.1c2,0,3.6-1.3,4.2-3.1c10.4-0.9,14.4-5.3,15.1-13.6c0.9,0,1.9,0,2.8,0
	c4,2.7,8.1,5.3,12.1,8c7.4-8.2,11.9-19,11.9-30.9C96.2,27.8,75.5,7.1,50,7.1z M69.4,68.2H69c-1-5.5-3.1-11.3-3.5-14.7
	c-0.1-0.5-0.1-1-0.2-1.5c0.3,0.3,0.5,0.6,0.7,0.6c0.9,0.4,1.7,1,2.7-0.3c0,0,0,0,0-0.1c0,0,0,0,0,0c-0.6-1-1.7-2.7-2.7-3.6
	c-0.4-0.2-1.6-0.5-1.6-0.5l0,0c-2.2-7.2-7.2-11-13.7-11.3c-0.3-1.3-1.3-2.5-2.7-2.9c-0.2-0.1-0.4-0.1-0.6-0.1c0,0,0.1,0.1,0.1,0.1
	c0,0-0.1,0-0.1,0c0.7,0.8,1.2,1.9,1.4,3c-6.3,0.4-11.1,4.2-13.2,11.2c-0.1,0-1.3,0.3-1.6,0.5c-1.1,0.9-2.1,2.7-2.7,3.6c0,0,0,0,0,0
	c0,0,0,0,0,0.1c1,1.3,1.8,0.7,2.7,0.3c0.2-0.1,0.5-0.3,0.7-0.6c-0.1,0.5-0.1,1-0.2,1.4C34.1,57,32,62.8,31,68.2h-0.2
	c0,0-2.4-6-2.4-16.2c0-10.2,2.4-16.2,2.4-16.2s3-1.9,11.6-2.6l-7.6-12.9c-0.2-0.4-0.1-0.9,0.3-1.1c0.4-0.2,0.9-0.1,1.1,0.3l8,13.6
	c1.7-0.1,3.6-0.2,5.7-0.2c2.9,0,5.4,0.1,7.6,0.3l11-16.7c0.2-0.4,0.7-0.5,1.1-0.2c0.4,0.2,0.5,0.7,0.2,1.1l-10.5,16
	c7.2,0.8,10.2,2.4,10.2,2.4s2.2,5.9,2.2,16.2C71.6,59.8,69.4,68.2,69.4,68.2z"/>
</svg>
