<?xml version="1.0" encoding="utf-8"?>
<!-- Generator: Adobe Illustrator 25.0.0, SVG Export Plug-In . SVG Version: 6.00 Build 0)  -->
<svg version="1.1" id="图层_1" xmlns="http://www.w3.org/2000/svg" xmlns:xlink="http://www.w3.org/1999/xlink" x="0px" y="0px"
	 viewBox="0 0 36 36" style="enable-background:new 0 0 36 36;" xml:space="preserve">
<style type="text/css">
	.st0{fill:#0F0F0F;}
</style>
<path class="st0" d="M18,6.6c-6.8,0-12.3,5.5-12.3,12.2c0,3.2,1.2,6,3.2,8.2c1.1-0.7,2.2-1.4,3.2-2.1c0.3,0,0.5,0,0.8,0
	c0.2,2.2,1.3,3.4,4,3.6c0.2,0.5,0.6,0.8,1.1,0.8c0.5,0,1-0.4,1.1-0.8c2.8-0.3,3.8-1.4,4-3.6c0.3,0,0.5,0,0.8,0
	c1.1,0.7,2.2,1.4,3.2,2.1c2-2.2,3.2-5.1,3.2-8.2C30.3,12,24.8,6.6,18,6.6z M23.2,22.8h-0.1c-0.3-1.5-0.8-3-1-3.9
	c-0.1-0.2-0.1-0.3-0.1-0.4c0.1,0.1,0.2,0.2,0.2,0.2c0.3,0.1,0.5,0.3,0.7-0.1c0,0,0,0,0-0.1l0,0c-0.2-0.3-0.5-0.7-0.7-1
	c-0.1-0.1-0.4-0.2-0.4-0.2l0,0c-0.6-1.9-1.9-2.9-3.7-3c-0.1-0.4-0.4-0.7-0.7-0.8c-0.1-0.1-0.1-0.1-0.2-0.1l0.1,0.1h-0.1
	c0.2,0.2,0.3,0.5,0.4,0.8c-1.7,0.1-3,1.1-3.5,3c-0.1,0-0.4,0.1-0.4,0.2c-0.3,0.3-0.6,0.7-0.7,1l0,0c0,0,0,0,0,0.1
	c0.3,0.4,0.5,0.2,0.7,0.1c0.1-0.1,0.2-0.1,0.2-0.2c-0.1,0.2-0.1,0.3-0.1,0.4c-0.1,1-0.7,2.5-1,3.9h-0.1c0,0-0.7-1.6-0.7-4.3
	s0.7-4.3,0.7-4.3s0.8-0.5,3.1-0.7L14,10c-0.1-0.1-0.1-0.3,0.1-0.3c0.1-0.1,0.3-0.1,0.3,0.1l2.1,3.6c0.5-0.1,1-0.1,1.5-0.1
	c0.8,0,1.5,0.1,2,0.1L22.9,9C23,8.9,23.1,8.9,23.2,9c0.1,0.1,0.2,0.2,0.1,0.3l-2.8,4.3c1.9,0.2,2.7,0.7,2.7,0.7s0.6,1.6,0.6,4.3
	C23.8,20.6,23.2,22.8,23.2,22.8z"/>
</svg>
