<?xml version="1.0" standalone="no"?>
<!DOCTYPE svg PUBLIC "-//W3C//DTD SVG 20010904//EN"
 "http://www.w3.org/TR/2001/REC-SVG-20010904/DTD/svg10.dtd">
<svg version="1.0" xmlns="http://www.w3.org/2000/svg"
 width="100.000000pt" height="100.000000pt" viewBox="0 0 100.000000 100.000000"
 preserveAspectRatio="xMidYMid meet">

<g transform="translate(0.000000,100.000000) scale(0.100000,-0.100000)"
fill="#000000" stroke="none">
<path d="M365 899 c-213 -75 -339 -281 -306 -500 12 -73 54 -174 91 -218 l20
-23 63 41 c35 22 68 41 74 41 6 0 13 -14 17 -32 9 -44 52 -86 95 -94 20 -4 48
-16 64 -27 l27 -21 28 21 c15 11 43 23 63 27 43 8 86 50 95 94 4 18 12 32 18
32 6 0 38 -18 71 -40 l59 -39 22 20 c36 34 82 140 94 215 31 202 -71 393 -257
482 -71 34 -86 37 -178 40 -81 2 -111 -2 -160 -19z m286 -159 c-28 -44 -45
-80 -38 -80 6 0 29 -5 49 -10 33 -9 39 -16 49 -53 12 -46 8 -234 -6 -257 -6
-10 -14 8 -25 55 -16 68 -16 70 3 75 18 5 18 6 -5 30 -13 14 -34 41 -46 61
-19 32 -72 69 -98 69 -4 0 -16 7 -26 17 -15 13 -18 14 -18 1 0 -8 -19 -22 -41
-32 -24 -11 -48 -31 -58 -49 -9 -16 -29 -44 -44 -61 -25 -28 -26 -31 -9 -34
18 -3 18 -6 4 -68 -9 -35 -19 -64 -23 -64 -20 0 -26 198 -9 262 9 31 17 39 48
48 20 5 45 10 55 10 24 0 22 7 -18 74 -20 32 -34 61 -31 63 5 5 15 -11 59 -86
l25 -43 69 -3 69 -2 55 83 c29 45 56 81 58 79 2 -2 -19 -40 -48 -85z"/>
</g>
</svg>
