<svg enable-background="new 0 0 104.3 36" viewBox="0 0 104.3 36" xmlns="http://www.w3.org/2000/svg"><path d="m18 2.9c-9 0-16.4 7.3-16.4 16.2 0 4.3 1.6 8 4.3 10.9 1.5-.9 2.9-1.9 4.3-2.8h1.1c.3 2.9 1.7 4.5 5.3 4.8.3.7.8 1.1 1.5 1.1s1.3-.5 1.5-1.1c3.7-.4 5.1-1.9 5.3-4.8h1.1c1.5.9 2.9 1.9 4.3 2.8 2.7-2.9 4.3-6.8 4.3-10.9-.2-9.1-7.6-16.2-16.6-16.2zm6.9 21.5h-.1c-.4-2-1.1-4-1.3-5.2-.1-.3-.1-.4-.1-.5.1.1.3.3.3.3.4.1.7.4.9-.1 0 0 0 0 0-.1-.3-.4-.7-.9-.9-1.3-.1-.1-.5-.3-.5-.3-.8-2.5-2.5-3.9-4.9-4-.1-.5-.5-.9-.9-1.1-.1-.1-.1-.1-.3-.1l.1.1h-.1c.3.3.4.7.5 1.1-2.3.1-4 1.5-4.7 4-.1 0-.5.1-.5.3-.4.4-.8.9-.9 1.3v.1c.4.5.7.3.9.1.1-.1.3-.1.3-.3-.1.3-.1.4-.1.5-.1 1.3-.9 3.3-1.3 5.2h-.3s-.9-2.1-.9-5.7.9-5.7.9-5.7 1.1-.7 4.1-.9l-2.4-4.7c-.2-.2-.2-.4.1-.4.1-.1.4-.1.4.1l2.8 4.8c.7-.1 1.3-.1 2-.1 1.1 0 2 .1 2.7.1l3.8-5.9c.1-.1.3-.1.4 0 .1.2.3.3.1.4l-3.7 5.7c2.5.3 3.6.9 3.6.9s.8 2.1.8 5.7c0 2.8-.8 5.7-.8 5.7z" fill="#0f0f0f"/><path d="m46.5 18.3c-1.2-.6-2-1.3-2.6-2.2s-.9-1.8-.9-3c0-1.8.7-3.4 2-4.5s3-1.8 5.1-1.8c2 0 3.7.6 5.1 1.8s2 2.6 2 4.4c0 1.3-.3 2.4-.9 3.2-.6.9-1.5 1.6-2.7 2.2 1.2.5 2.1 1.2 2.8 2.2.6.9 1 2.1 1 3.3 0 2-.7 3.6-2 4.8-1.4 1.2-3.1 1.9-5.3 1.9s-3.9-.6-5.3-1.9-2-2.9-2-4.9c0-1.2.3-2.3 1-3.2.6-1.1 1.5-1.8 2.7-2.3zm-.8 5.4c0 1.3.4 2.3 1.2 3.1s1.8 1.2 3.2 1.2c1.3 0 2.4-.4 3.2-1.1s1.2-1.8 1.2-3-.4-2.2-1.2-3-1.9-1.2-3.1-1.2c-1.3 0-2.3.4-3.1 1.1-1 .7-1.4 1.7-1.4 2.9zm.2-10.6c0 1.2.4 2.1 1.2 2.9s1.8 1.1 3 1.1 2.2-.4 3-1.1c.8-.8 1.2-1.7 1.2-2.9 0-1.1-.4-2.1-1.2-2.8s-1.8-1.1-3-1.1-2.2.4-3 1.1-1.2 1.6-1.2 2.8z"/><path d="m68.7 23v5.3c0 .5-.1.9-.3 1.1s-.5.4-.8.4h-3.3c-.5 0-.8-.1-1.1-.3-.2-.2-.4-.5-.4-1s.1-.8.4-1 .9-.3 1.8-.3h1v-18.1h-.7c-1 0-1.7-.1-2-.3s-.4-.5-.4-1c0-.4.1-.8.4-1s.6-.3 1.1-.3h3.4c.3 0 .6.1.8.2s.3.3.3.5v12.8l5.2-4.3c-.4-.2-.7-.4-.9-.6s-.3-.4-.3-.7c0-.4.1-.6.4-.8s.6-.3 1.1-.3h4.8c.5 0 .8.1 1 .3s.4.5.4.9c0 .7-.6 1.1-1.7 1.2-.2 0-.4 0-.5.1-.5.1-1 .2-1.6.6s-1.2.7-1.8 1.3l-2.7 2.3 6.8 7.4h1.5c.5 0 .9.1 1.1.3s.3.5.3.9-.1.7-.4 1c-.2.2-.6.3-1.1.3h-4.8c-.5 0-.9-.1-1.1-.3s-.4-.5-.4-.9c0-.3.1-.6.3-.8s.6-.4 1-.6l-5.3-5.8z"/><path d="m89.5 23.3c0 1.5.3 2.6.9 3.3s1.6 1 3 1c1.3 0 2.4-.4 3.3-1.2s1.4-1.9 1.4-3.1v-7.4h-2.4c-.5 0-.8-.1-1-.3s-.3-.5-.3-.9.1-.8.3-1 .6-.3 1.1-.3h3.8c.5 0 .8.1 1 .3s.3.7.3 1.4v12.3h.8c.6 0 1 .1 1.3.3s.4.5.4.9-.1.8-.4 1c-.2.2-.6.3-1.1.3h-2.7c-.3 0-.6-.1-.8-.2s-.3-.3-.3-.5v-1.2c-1.1.9-2.1 1.5-2.9 1.8s-1.7.5-2.6.5c-2 0-3.4-.5-4.4-1.6-1-1-1.5-2.6-1.5-4.7v-8h-.4c-.8 0-1.4-.1-1.7-.3s-.4-.5-.4-1c0-.4.1-.7.3-.9s.6-.3 1.1-.3h2.7c.4 0 .7.1.9.2.2.2.2.5.2 1.1v8.5z"/></svg>