<?xml version="1.0" standalone="no"?>
<!DOCTYPE svg PUBLIC "-//W3C//DTD SVG 20010904//EN"
 "http://www.w3.org/TR/2001/REC-SVG-20010904/DTD/svg10.dtd">
<svg version="1.0" xmlns="http://www.w3.org/2000/svg"
 width="36.000000pt" height="36.000000pt" viewBox="0 0 36.000000 36.000000"
 preserveAspectRatio="xMidYMid meet">

<g transform="translate(0.000000,36.000000) scale(0.100000,-0.100000)"
fill="#000000" stroke="none">
<path d="M137 316 c-74 -27 -107 -76 -107 -158 0 -46 7 -68 36 -106 1 -2 14 4
27 13 24 15 26 15 32 -4 14 -45 116 -45 130 0 6 19 8 19 32 4 13 -9 26 -15 27
-13 45 60 50 144 13 198 -42 63 -122 91 -190 66z m13 -116 c-20 -21 -26 -37
-22 -52 3 -14 2 -19 -6 -14 -15 9 -15 36 -2 70 7 18 17 26 34 26 l24 0 -28
-30z m111 3 c7 -19 7 -37 0 -58 -9 -27 -10 -27 -9 -5 2 33 -18 69 -45 80 -19
8 -18 9 11 9 27 1 34 -4 43 -26z"/>
</g>
</svg>
