<?xml version="1.0" encoding="utf-8"?>
<!-- Generator: Adobe Illustrator 25.0.0, SVG Export Plug-In . SVG Version: 6.00 Build 0)  -->
<svg version="1.1" id="图层_1" xmlns="http://www.w3.org/2000/svg" xmlns:xlink="http://www.w3.org/1999/xlink" x="0px" y="0px"
	 viewBox="0 0 104.3 36" style="enable-background:new 0 0 104.3 36;" xml:space="preserve">
<style type="text/css">
	.st0{fill:#0F0F0F;}
</style>
<path class="st0" d="M18,2.9c-9,0-16.4,7.3-16.4,16.2c0,4.3,1.6,8,4.3,10.9c1.5-0.9,2.9-1.9,4.3-2.8c0.4,0,0.7,0,1.1,0
	c0.3,2.9,1.7,4.5,5.3,4.8c0.3,0.7,0.8,1.1,1.5,1.1s1.3-0.5,1.5-1.1c3.7-0.4,5.1-1.9,5.3-4.8c0.4,0,0.7,0,1.1,0
	c1.5,0.9,2.9,1.9,4.3,2.8c2.7-2.9,4.3-6.8,4.3-10.9C34.4,10,27,2.9,18,2.9z M24.9,24.4h-0.1c-0.4-2-1.1-4-1.3-5.2
	c-0.1-0.3-0.1-0.4-0.1-0.5c0.1,0.1,0.3,0.3,0.3,0.3c0.4,0.1,0.7,0.4,0.9-0.1c0,0,0,0,0-0.1l0,0c-0.3-0.4-0.7-0.9-0.9-1.3
	c-0.1-0.1-0.5-0.3-0.5-0.3l0,0c-0.8-2.5-2.5-3.9-4.9-4c-0.1-0.5-0.5-0.9-0.9-1.1C17.3,12,17.3,12,17.1,12l0.1,0.1h-0.1
	c0.3,0.3,0.4,0.7,0.5,1.1c-2.3,0.1-4,1.5-4.7,4c-0.1,0-0.5,0.1-0.5,0.3c-0.4,0.4-0.8,0.9-0.9,1.3l0,0c0,0,0,0,0,0.1
	c0.4,0.5,0.7,0.3,0.9,0.1c0.1-0.1,0.3-0.1,0.3-0.3c-0.1,0.3-0.1,0.4-0.1,0.5c-0.1,1.3-0.9,3.3-1.3,5.2H11c0,0-0.9-2.1-0.9-5.7
	S11,13,11,13s1.1-0.7,4.1-0.9l-2.4-4.7C12.5,7.2,12.5,7,12.8,7c0.1-0.1,0.4-0.1,0.4,0.1l2.8,4.8c0.7-0.1,1.3-0.1,2-0.1
	c1.1,0,2,0.1,2.7,0.1L24.5,6c0.1-0.1,0.3-0.1,0.4,0C25,6.2,25.2,6.3,25,6.4l-3.7,5.7c2.5,0.3,3.6,0.9,3.6,0.9s0.8,2.1,0.8,5.7
	C25.7,21.5,24.9,24.4,24.9,24.4z"/>
<g>
	<path d="M46.5,18.3c-1.2-0.6-2-1.3-2.6-2.2S43,14.3,43,13.1c0-1.8,0.7-3.4,2-4.5s3-1.8,5.1-1.8c2,0,3.7,0.6,5.1,1.8s2,2.6,2,4.4
		c0,1.3-0.3,2.4-0.9,3.2c-0.6,0.9-1.5,1.6-2.7,2.2c1.2,0.5,2.1,1.2,2.8,2.2c0.6,0.9,1,2.1,1,3.3c0,2-0.7,3.6-2,4.8
		c-1.4,1.2-3.1,1.9-5.3,1.9c-2.2,0-3.9-0.6-5.3-1.9s-2-2.9-2-4.9c0-1.2,0.3-2.3,1-3.2C44.4,19.5,45.3,18.8,46.5,18.3z M45.7,23.7
		c0,1.3,0.4,2.3,1.2,3.1c0.8,0.8,1.8,1.2,3.2,1.2c1.3,0,2.4-0.4,3.2-1.1s1.2-1.8,1.2-3c0-1.2-0.4-2.2-1.2-3
		c-0.8-0.8-1.9-1.2-3.1-1.2c-1.3,0-2.3,0.4-3.1,1.1C46.1,21.5,45.7,22.5,45.7,23.7z M45.9,13.1c0,1.2,0.4,2.1,1.2,2.9
		c0.8,0.8,1.8,1.1,3,1.1c1.2,0,2.2-0.4,3-1.1c0.8-0.8,1.2-1.7,1.2-2.9c0-1.1-0.4-2.1-1.2-2.8c-0.8-0.7-1.8-1.1-3-1.1
		c-1.2,0-2.2,0.4-3,1.1C46.3,11,45.9,11.9,45.9,13.1z"/>
	<path d="M68.7,23v5.3c0,0.5-0.1,0.9-0.3,1.1s-0.5,0.4-0.8,0.4h-3.3c-0.5,0-0.8-0.1-1.1-0.3c-0.2-0.2-0.4-0.5-0.4-1
		c0-0.5,0.1-0.8,0.4-1c0.3-0.2,0.9-0.3,1.8-0.3H66V9.1h-0.7c-1,0-1.7-0.1-2-0.3s-0.4-0.5-0.4-1c0-0.4,0.1-0.8,0.4-1s0.6-0.3,1.1-0.3
		h3.4c0.3,0,0.6,0.1,0.8,0.2c0.2,0.1,0.3,0.3,0.3,0.5V20l5.2-4.3c-0.4-0.2-0.7-0.4-0.9-0.6c-0.2-0.2-0.3-0.4-0.3-0.7
		c0-0.4,0.1-0.6,0.4-0.8c0.3-0.2,0.6-0.3,1.1-0.3h4.8c0.5,0,0.8,0.1,1,0.3c0.2,0.2,0.4,0.5,0.4,0.9c0,0.7-0.6,1.1-1.7,1.2
		c-0.2,0-0.4,0-0.5,0.1c-0.5,0.1-1,0.2-1.6,0.6s-1.2,0.7-1.8,1.3L72.3,20l6.8,7.4h1.5c0.5,0,0.9,0.1,1.1,0.3
		c0.2,0.2,0.3,0.5,0.3,0.9c0,0.4-0.1,0.7-0.4,1c-0.2,0.2-0.6,0.3-1.1,0.3h-4.8c-0.5,0-0.9-0.1-1.1-0.3s-0.4-0.5-0.4-0.9
		c0-0.3,0.1-0.6,0.3-0.8c0.2-0.2,0.6-0.4,1-0.6l-5.3-5.8L68.7,23z"/>
	<path d="M89.5,23.3c0,1.5,0.3,2.6,0.9,3.3s1.6,1,3,1c1.3,0,2.4-0.4,3.3-1.2c0.9-0.8,1.4-1.9,1.4-3.1v-7.4h-2.4
		c-0.5,0-0.8-0.1-1-0.3c-0.2-0.2-0.3-0.5-0.3-0.9c0-0.4,0.1-0.8,0.3-1c0.2-0.2,0.6-0.3,1.1-0.3h3.8c0.5,0,0.8,0.1,1,0.3
		c0.2,0.2,0.3,0.7,0.3,1.4v12.3h0.8c0.6,0,1,0.1,1.3,0.3s0.4,0.5,0.4,0.9c0,0.4-0.1,0.8-0.4,1c-0.2,0.2-0.6,0.3-1.1,0.3h-2.7
		c-0.3,0-0.6-0.1-0.8-0.2s-0.3-0.3-0.3-0.5v-1.2c-1.1,0.9-2.1,1.5-2.9,1.8s-1.7,0.5-2.6,0.5c-2,0-3.4-0.5-4.4-1.6
		c-1-1-1.5-2.6-1.5-4.7v-8h-0.4c-0.8,0-1.4-0.1-1.7-0.3c-0.3-0.2-0.4-0.5-0.4-1c0-0.4,0.1-0.7,0.3-0.9c0.2-0.2,0.6-0.3,1.1-0.3h2.7
		c0.4,0,0.7,0.1,0.9,0.2c0.2,0.2,0.2,0.5,0.2,1.1V23.3z"/>
</g>
</svg>
