<?xml version="1.0" encoding="utf-8"?>
<!-- Generator: Adobe Illustrator 25.0.0, SVG Export Plug-In . SVG Version: 6.00 Build 0)  -->
<svg version="1.1" id="图层_1" xmlns="http://www.w3.org/2000/svg" xmlns:xlink="http://www.w3.org/1999/xlink" x="0px" y="0px"
	 viewBox="0 0 100 100" style="enable-background:new 0 0 100 100;" xml:space="preserve">
<style type="text/css">
	.st0{fill:#FFFFFF;}
</style>
<path class="st0" d="M50,27.3c-13.5,0-24.5,11-24.5,24.4c0,6.3,2.4,12,6.3,16.4c2.1-1.4,4.3-2.8,6.4-4.2c0.5,0,1,0,1.5,0
	c0.4,4.4,2.5,6.7,8,7.2c0.3,1,1.2,1.6,2.2,1.6s1.9-0.7,2.2-1.6c5.5-0.5,7.6-2.8,8-7.2c0.5,0,1,0,1.5,0c2.1,1.4,4.3,2.8,6.4,4.2
	c3.9-4.3,6.3-10.1,6.3-16.4C74.4,38.2,63.5,27.3,50,27.3z M60.2,59.6H60c-0.5-2.9-1.6-6-1.9-7.8c-0.1-0.3-0.1-0.5-0.1-0.8
	c0.2,0.2,0.3,0.3,0.4,0.3c0.5,0.2,0.9,0.5,1.4-0.2c0,0,0,0,0-0.1l0,0c-0.3-0.5-0.9-1.4-1.4-1.9c-0.2-0.1-0.8-0.3-0.8-0.3l0,0
	c-1.2-3.8-3.8-5.8-7.3-6c-0.2-0.7-0.7-1.3-1.4-1.5c-0.1-0.1-0.2-0.1-0.3-0.1l0.1,0.1h-0.1c0.4,0.4,0.6,1,0.7,1.6
	c-3.3,0.2-5.9,2.2-7,5.9c-0.1,0-0.7,0.2-0.8,0.3c-0.6,0.5-1.1,1.4-1.4,1.9l0,0c0,0,0,0,0,0.1c0.5,0.7,1,0.4,1.4,0.2
	c0.1-0.1,0.3-0.2,0.4-0.3c-0.1,0.3-0.1,0.5-0.1,0.7c-0.2,1.9-1.3,5-1.9,7.8h-0.1c0,0-1.3-3.2-1.3-8.6s1.3-8.6,1.3-8.6s1.6-1,6.1-1.4
	l-4-6.8c-0.1-0.2-0.1-0.5,0.2-0.6c0.2-0.1,0.5-0.1,0.6,0.2l4.2,7.2c0.9-0.1,1.9-0.1,3-0.1c1.5,0,2.9,0.1,4,0.2l5.8-8.8
	c0.1-0.2,0.4-0.3,0.6-0.1c0.2,0.1,0.3,0.4,0.1,0.6l-5.6,8.5c3.8,0.4,5.4,1.3,5.4,1.3s1.2,3.1,1.2,8.6C61.4,55.2,60.2,59.6,60.2,59.6
	z"/>
</svg>
